<svg id="logo" xmlns="http://www.w3.org/2000/svg" viewBox="0 0 456.25 456.25">
  <defs>
    <style>
      .cls-1 {
        fill: #231f20;
      }

      .cls-2 {
        fill: none;
        stroke: #231f20;
        stroke-miterlimit: 10;
        stroke-width: 4px;
      }
    </style>
  </defs>
  <title>circleL</title>
  <g id="L">
    <path class="cls-1" d="M194,317.15q-12.37,0-19.56-7.19t-7.19-19.56V141.69q3.16-.57,10.07-1.58a92,92,0,0,1,13.23-1,60,60,0,0,1,11.65,1,20.75,20.75,0,0,1,8.49,3.6,15.55,15.55,0,0,1,5.18,7.19A35.08,35.08,0,0,1,217.63,163V276.59H283.5a38,38,0,0,1,3.74,8.49A35.7,35.7,0,0,1,289,296.15q0,11.51-4.89,16.25t-12.94,4.75Z"/>
  </g>
  <path id="Circle" class="cls-2" d="M228.13,2C103.24,2,2,103.24,2,228.13S103.24,454.25,228.13,454.25,454.25,353,454.25,228.13,353,2,228.13,2Zm0,388.35A162.22,162.22,0,1,1,390.35,228.13,162.22,162.22,0,0,1,228.13,390.35Z"/>
</svg>
