<?xml version="1.0" standalone="no"?>
<!DOCTYPE svg PUBLIC "-//W3C//DTD SVG 20010904//EN"
 "http://www.w3.org/TR/2001/REC-SVG-20010904/DTD/svg10.dtd">
<svg version="1.0" xmlns="http://www.w3.org/2000/svg"
 width="16.000000pt" height="16.000000pt" viewBox="0 0 16.000000 16.000000"
 preserveAspectRatio="xMidYMid meet">
<metadata>
Created by potrace 1.11, written by Peter Selinger 2001-2013
</metadata>
<g transform="translate(0.000000,16.000000) scale(0.003509,-0.003509)"
fill="#000000" stroke="none">
<path d="M2099 4546 c-2 -2 -33 -7 -69 -10 -157 -16 -352 -61 -520 -121 -588
-209 -1081 -678 -1324 -1257 -38 -92 -90 -238 -101 -288 -2 -8 -10 -44 -19
-80 -43 -185 -58 -320 -58 -521 0 -361 74 -682 232 -1004 312 -636 888 -1082
1590 -1232 120 -26 138 -27 435 -28 280 0 356 3 435 20 14 2 50 10 80 16 97
20 282 79 394 126 280 118 511 275 731 497 322 324 536 725 622 1166 28 143
32 211 29 480 -4 311 -15 395 -84 620 -200 647 -668 1171 -1282 1435 -190 82
-356 128 -621 171 -41 6 -464 16 -470 10z m461 -50 c19 -4 62 -11 95 -16 33
-6 71 -12 85 -15 14 -4 36 -8 50 -11 14 -3 70 -18 126 -34 565 -164 1055 -559
1336 -1077 147 -270 233 -544 265 -848 9 -87 9 -355 0 -455 -8 -85 -31 -217
-54 -305 -8 -33 -17 -67 -19 -75 -22 -96 -101 -293 -167 -420 -108 -208 -232
-376 -407 -551 -187 -188 -377 -324 -595 -428 -60 -29 -119 -57 -129 -63 -78
-42 -398 -128 -571 -153 -72 -11 -459 -14 -525 -5 -36 5 -81 12 -100 14 -162
22 -397 90 -549 158 -116 52 -135 61 -231 116 -450 258 -803 676 -984 1165
-34 92 -82 257 -92 316 -3 14 -9 49 -14 76 -29 154 -42 434 -26 576 4 30 9 77
12 104 9 78 53 281 81 369 83 264 223 526 397 742 74 92 210 232 283 290 26
21 55 47 64 56 33 36 270 187 384 245 213 108 421 175 670 218 17 3 59 8 95
11 36 4 67 8 69 10 6 5 414 -4 451 -10z"/>
<path d="M2278 3916 c-1 -2 -50 -6 -106 -10 -402 -24 -798 -212 -1079 -510
-605 -642 -596 -1649 21 -2271 116 -117 159 -153 265 -225 66 -44 250 -142
286 -152 11 -3 52 -18 90 -32 65 -24 271 -74 305 -74 8 0 33 -3 55 -6 54 -7
289 -8 345 -1 79 11 203 35 260 50 30 9 62 18 70 20 87 22 279 114 395 189
392 255 671 696 731 1152 10 78 13 344 4 404 -18 123 -22 147 -31 188 -91 412
-373 804 -744 1032 -107 66 -304 154 -393 176 -202 49 -217 51 -352 60 -52 3
-100 7 -107 9 -6 2 -13 2 -15 1z m237 -61 c182 -30 307 -68 465 -143 384 -181
688 -527 825 -935 62 -184 80 -304 80 -517 -1 -206 -20 -318 -86 -512 -152
-450 -508 -814 -960 -981 -52 -20 -106 -38 -120 -40 -13 -3 -44 -10 -69 -17
-104 -28 -167 -34 -355 -35 -180 0 -245 5 -353 30 -594 136 -1062 590 -1207
1174 -23 93 -26 110 -41 216 -10 77 -8 301 5 385 32 220 104 430 204 595 243
401 595 656 1052 762 138 31 420 41 560 18z"/>
<path d="M1770 3150 c-40 -10 -90 -60 -91 -93 -5 -127 0 -1444 5 -1478 8 -57
56 -131 99 -157 72 -43 92 -45 548 -45 l436 0 43 24 c61 34 84 82 84 179 1 90
-23 160 -62 186 -24 16 -55 18 -287 19 -282 1 -309 5 -342 54 -17 24 -18 65
-19 586 -1 384 -5 573 -13 602 -15 55 -61 99 -119 117 -52 15 -228 19 -282 6z"/>
</g>
</svg>
